<svg width="124" height="40" viewBox="0 0 124 40" fill="none" xmlns="http://www.w3.org/2000/svg">
<g clip-path="url(#clip0_413_1177)">
<path d="M47.8335 7.00156H45.2686V4.71387H53.3795V7.00156H50.8145V13.518H47.8335V7.00156Z" fill="white"/>
<path d="M53.0327 10.0521C53.0327 7.97241 54.6965 6.5166 56.9842 6.5166C59.3412 6.5166 60.9357 7.97241 60.9357 10.0521C60.9357 12.1319 59.2719 13.5877 56.9842 13.5877C54.6965 13.5877 53.0327 12.1319 53.0327 10.0521ZM58.0934 10.0521C58.0934 9.15092 57.6081 8.73497 56.9842 8.73497C56.3603 8.73497 55.875 9.22024 55.875 10.0521C55.875 10.9533 56.3603 11.3693 56.9842 11.3693C57.6081 11.4386 58.0934 10.9533 58.0934 10.0521Z" fill="white"/>
<path d="M66.898 13.2408C66.482 13.5181 65.7888 13.5874 65.1648 13.5874C63.2931 13.5874 62.1839 12.6862 62.1839 10.8145V9.08136H61.2134V7.00163H62.1839V5.12988H65.0262V7.07096H66.4127V9.15068H65.0262V10.8838C65.0262 11.2997 65.3035 11.577 65.5808 11.577C65.7888 11.577 65.9967 11.5077 66.2047 11.3691L66.898 13.2408Z" fill="white"/>
<path d="M74.3845 9.84416V13.5183H71.7502V12.6171C71.4036 13.3104 70.7797 13.657 69.8091 13.657C68.1454 13.657 67.2441 12.6864 67.2441 11.5079C67.2441 10.1908 68.2147 9.42821 70.3637 9.42821H71.4729C71.4036 8.87362 70.9876 8.59632 70.1558 8.59632C69.5318 8.59632 68.8386 8.8043 68.4226 9.15092L67.5214 7.27917C68.3533 6.7939 69.5318 6.5166 70.5717 6.5166C72.998 6.5166 74.3845 7.55646 74.3845 9.84416ZM71.5422 11.3V10.8147H70.849C70.2251 10.8147 70.0171 11.0227 70.0171 11.3693C70.0171 11.7159 70.2944 11.9239 70.7103 11.9239C71.057 11.9239 71.4036 11.7159 71.5422 11.3Z" fill="white"/>
<path d="M78.4751 4.22852H75.6328V13.5179H78.4751V4.22852Z" fill="white"/>
<path d="M45.4072 24.2632L46.3778 22.1142C47.2097 22.5995 48.3188 22.9461 49.2894 22.9461C50.1213 22.9461 50.3986 22.7381 50.3986 22.4608C50.3986 21.3516 45.5459 22.2528 45.5459 18.9946C45.5459 17.4002 46.9324 16.0137 49.636 16.0137C50.8145 16.0137 51.993 16.291 52.9636 16.7762L52.0623 18.9253C51.2304 18.5093 50.3986 18.3014 49.636 18.3014C48.8041 18.3014 48.5268 18.5787 48.5268 18.856C48.5268 19.8958 53.3795 19.0639 53.3795 22.2528C53.3795 23.8473 51.993 25.2338 49.2894 25.2338C47.7642 25.1645 46.3084 24.8178 45.4072 24.2632Z" fill="white"/>
<path d="M61.9757 21.5599C61.9757 23.7783 60.4506 25.0955 58.6481 25.0955C57.8856 25.0955 57.331 24.8875 56.915 24.5409V27.4525H54.0728V18.0937H56.7764V18.6483C57.1923 18.1631 57.8163 17.9551 58.6481 17.9551C60.4506 17.9551 61.9757 19.3416 61.9757 21.5599ZM59.0641 21.5599C59.0641 20.6587 58.5788 20.2428 57.9549 20.2428C57.331 20.2428 56.8457 20.728 56.8457 21.5599C56.8457 22.4611 57.331 22.8771 57.9549 22.8771C58.5788 22.8771 59.0641 22.3918 59.0641 21.5599Z" fill="white"/>
<path d="M67.7296 17.9551V20.4507C67.4523 20.3814 67.3137 20.3814 67.1057 20.3814C66.2738 20.3814 65.6499 20.7974 65.6499 21.8372V24.9568H62.8076V18.0937H65.5113V18.8563C66.0659 18.3017 66.8284 17.9551 67.7296 17.9551Z" fill="white"/>
<path d="M75.2859 21.2826V24.9568H72.6516V24.0556C72.305 24.7488 71.681 25.0955 70.7105 25.0955C69.0467 25.0955 68.1455 24.1249 68.1455 22.9464C68.1455 21.6293 69.116 20.8667 71.2651 20.8667H72.3743C72.305 20.3121 71.889 20.0348 71.0571 20.0348C70.4332 20.0348 69.74 20.2428 69.324 20.5894L68.4228 18.7176C69.2547 18.2324 70.4332 17.9551 71.4731 17.9551C73.8994 17.9551 75.2859 18.9949 75.2859 21.2826ZM72.4436 22.7384V22.2532H71.7504C71.1264 22.2532 70.9185 22.4611 70.9185 22.8078C70.9185 23.1544 71.1958 23.3624 71.6117 23.3624C71.9583 23.3624 72.305 23.1544 72.4436 22.7384Z" fill="white"/>
<path d="M83.9517 18.0938L81.1094 25.0955C80.3468 26.9672 79.2376 27.5218 77.7818 27.5218C77.0193 27.5218 76.1874 27.3139 75.7021 26.8979L76.6726 24.9568C76.9499 25.1648 77.3659 25.3035 77.6432 25.3035C77.9205 25.3035 78.1978 25.2341 78.3364 25.0262L75.4248 18.0938H78.3364L79.7229 21.7679L81.1787 18.0938H83.9517Z" fill="white"/>
<path d="M92.2701 21.4902C92.2701 23.7086 90.745 25.0257 88.9426 25.0257C88.1107 25.0257 87.4868 24.8178 87.0708 24.3325V24.9564H84.3672V15.667H87.2095V18.5786C87.6254 18.1627 88.18 18.024 88.9426 18.024C90.745 17.9547 92.2701 19.3412 92.2701 21.4902ZM89.4278 21.4902C89.4278 20.589 88.9426 20.1731 88.3187 20.1731C87.6947 20.1731 87.2095 20.6583 87.2095 21.4902C87.2095 22.3914 87.6947 22.8074 88.3187 22.8074C88.9426 22.8767 89.4278 22.3914 89.4278 21.4902Z" fill="white"/>
<path d="M92.8252 21.4906C92.8252 19.4109 94.489 17.9551 96.7767 17.9551C99.1337 17.9551 100.728 19.4109 100.728 21.4906C100.728 23.5703 99.0644 25.0261 96.7767 25.0261C94.489 25.0955 92.8252 23.5703 92.8252 21.4906ZM97.8859 21.4906C97.8859 20.5894 97.4006 20.1734 96.7767 20.1734C96.1528 20.1734 95.6675 20.6587 95.6675 21.4906C95.6675 22.3918 96.1528 22.8078 96.7767 22.8078C97.4006 22.8771 97.8859 22.3918 97.8859 21.4906Z" fill="white"/>
<path d="M101.283 21.4906C101.283 19.4109 102.946 17.9551 105.234 17.9551C107.591 17.9551 109.186 19.4109 109.186 21.4906C109.186 23.5703 107.522 25.0261 105.234 25.0261C102.946 25.0955 101.283 23.5703 101.283 21.4906ZM106.413 21.4906C106.413 20.5894 105.927 20.1734 105.304 20.1734C104.68 20.1734 104.194 20.6587 104.194 21.4906C104.194 22.3918 104.68 22.8078 105.304 22.8078C105.927 22.8771 106.413 22.3918 106.413 21.4906Z" fill="white"/>
<path d="M115.147 24.6793C114.732 24.9566 114.038 25.0259 113.414 25.0259C111.543 25.0259 110.433 24.1247 110.433 22.2529V20.5198H109.532V18.4401H110.503V16.499H113.345V18.4401H114.732V20.5198H113.345V22.2529C113.345 22.6689 113.622 22.9462 113.9 22.9462C114.108 22.9462 114.316 22.8768 114.524 22.7382L115.147 24.6793Z" fill="white"/>
<path d="M123.466 21.0743V24.9564H120.624V21.5595C120.624 20.7277 120.277 20.381 119.792 20.381C119.237 20.381 118.752 20.7277 118.752 21.7675V24.9564H115.91V15.667H118.752V18.6479C119.307 18.232 119.93 17.9547 120.693 17.9547C122.218 17.9547 123.466 18.9252 123.466 21.0743Z" fill="white"/>
<path d="M45.6152 32.0275C45.6152 29.3239 47.695 27.4521 50.4679 27.4521C52.201 27.4521 53.5182 28.0761 54.4194 29.1853L52.5476 30.849C52.0624 30.2251 51.4385 29.8092 50.6066 29.8092C49.3587 29.8092 48.5268 30.6411 48.5268 32.0275C48.5268 33.3447 49.3587 34.2459 50.6066 34.2459C51.3691 34.2459 51.9931 33.8993 52.5476 33.2061L54.4194 34.8698C53.5875 35.979 52.201 36.6029 50.4679 36.6029C47.695 36.6029 45.6152 34.7312 45.6152 32.0275Z" fill="white"/>
<path d="M61.9758 32.7211V36.3953H59.3415V35.4941C58.9949 36.1873 58.371 36.5339 57.4004 36.5339C55.7367 36.5339 54.8354 35.5634 54.8354 34.3849C54.8354 33.0677 55.806 32.3052 57.955 32.3052H59.0642C58.9949 31.7506 58.579 31.4733 57.7471 31.4733C57.1231 31.4733 56.4299 31.6812 56.014 32.0279L55.1127 30.1561C55.9446 29.6708 57.1231 29.3936 58.163 29.3936C60.5894 29.4629 61.9758 30.4334 61.9758 32.7211ZM59.1335 34.1769V33.6916H58.4403C57.8164 33.6916 57.6084 33.8996 57.6084 34.2462C57.6084 34.5929 57.8857 34.8008 58.3017 34.8008C58.6483 34.8008 58.9949 34.5929 59.1335 34.1769Z" fill="white"/>
<path d="M68.0763 29.4629V31.9586C67.799 31.8892 67.6604 31.8892 67.4524 31.8892C66.6205 31.8892 65.9966 32.3052 65.9966 33.345V36.3953H63.1543V29.5322H65.8579V30.2948C66.3432 29.7402 67.1058 29.4629 68.0763 29.4629Z" fill="white"/>
<path d="M76.0485 33.6223H71.2651C71.4731 34.1769 71.9584 34.4542 72.6516 34.4542C73.2755 34.4542 73.6222 34.3156 74.1074 33.969L75.5632 35.4248C74.87 36.118 73.9688 36.5339 72.5823 36.5339C70.0866 36.5339 68.4229 35.0088 68.4229 32.9984C68.4229 30.9187 70.0866 29.4629 72.305 29.4629C74.3154 29.4629 76.0485 30.7107 76.0485 32.9984C76.1178 33.2064 76.0485 33.4144 76.0485 33.6223ZM71.2651 32.3052H73.4835C73.3449 31.7506 72.9289 31.404 72.3743 31.404C71.7504 31.3346 71.4038 31.6813 71.2651 32.3052Z" fill="white"/>
<path d="M32.444 40.0007C32.1667 40.0007 31.8894 40.0007 31.6121 39.9313C30.5029 39.7927 29.1857 39.5154 27.8686 39.2381C25.4422 38.6835 22.6693 38.1289 20.035 38.1289C20.035 38.1289 20.035 38.1289 19.9656 38.1289C17.47 38.1289 14.697 38.7528 12.2013 39.2381C10.7455 39.5154 9.42838 39.862 8.3192 40.0007C6.17015 40.278 4.0211 39.4461 2.35733 37.8516C0.693548 36.1878 -0.138341 33.9001 0.0696308 31.7511C0.208279 30.7112 0.416251 29.4634 0.624224 28.1462C1.04017 25.7199 1.52544 22.9469 1.52544 20.1046C1.52544 16.8464 1.04017 14.1428 0.554899 11.7858C0.346927 10.6072 0.138955 9.49806 0.000306752 8.4582C-0.207666 6.23983 0.554899 4.02146 2.21868 2.35768C3.95178 0.624577 6.17015 -0.207312 8.3192 0.0699847C9.35906 0.208633 10.5376 0.416605 11.7161 0.624577C14.1424 1.10985 16.8461 1.59511 19.9656 1.59511C23.2239 1.59511 25.9275 1.04052 28.2845 0.624577C29.463 0.416605 30.5722 0.139309 31.6121 0.0699847C33.6918 -0.137988 35.8409 0.555253 37.4353 2.08038C39.1684 3.67484 40.0696 6.03186 39.931 8.25023C39.8617 9.29009 39.723 10.5379 39.5844 11.8551C39.3071 14.3507 38.9604 17.1237 38.9604 19.966C38.9604 22.8083 39.3071 25.5813 39.5844 28.0769C39.723 29.3941 39.8617 30.6419 39.931 31.6818C40.0696 33.9695 39.1684 36.2572 37.4353 37.9209C36.0488 39.2381 34.2464 40.0007 32.444 40.0007ZM20.035 35.5639C22.9466 35.5639 25.8582 36.1878 28.4232 36.7424C29.7403 37.0197 30.9882 37.297 31.9587 37.4357C33.2759 37.5743 34.6623 37.0891 35.7715 36.1185C36.95 35.0093 37.6433 33.4149 37.5046 31.8897C37.4353 30.9192 37.2967 29.6714 37.158 28.3542C36.8807 25.7892 36.5341 22.9469 36.5341 19.966C36.5341 16.9157 36.8807 14.0735 37.158 11.5778C37.2967 10.33 37.4353 9.08212 37.5046 8.11158C37.574 6.58645 36.95 4.992 35.7715 3.88281C34.6623 2.84295 33.2759 2.35768 31.9587 2.49633C31.0575 2.63498 30.0176 2.77362 28.8391 3.05092C26.4821 3.53619 23.5705 4.09078 20.035 4.09078C16.7074 4.09078 13.7265 3.53619 11.3001 3.05092C10.0523 2.84295 9.01244 2.63498 8.11123 2.49633C6.65542 2.35768 5.19961 2.91227 4.0211 4.02146C2.91192 5.13064 2.35733 6.58645 2.49597 8.04226C2.63462 9.01279 2.77327 9.98333 3.05057 11.1618C3.46651 13.5189 4.0211 16.4998 4.0211 19.966C4.0211 23.0163 3.53584 25.9279 3.05057 28.4929C2.84259 29.7407 2.63462 30.9192 2.49597 31.8897C2.35733 33.3456 2.91192 34.8707 4.09043 35.9799C5.19961 37.0891 6.65542 37.5743 8.0419 37.4357C9.08176 37.297 10.3296 37.0197 11.7161 36.7424C14.2811 36.1878 17.1927 35.5639 20.035 35.5639Z" fill="#00AEEF"/>
<path d="M19.966 33.484C18.5795 33.484 17.3316 32.9294 16.4998 31.8896C16.1531 31.4736 15.7372 30.919 15.3906 30.3644C14.6973 29.3246 13.8654 28.1461 12.8949 27.1755C11.7857 26.0664 10.6072 25.2345 9.56735 24.5412C9.01276 24.1946 8.52749 23.848 8.11154 23.5014C7.07168 22.6695 6.51709 21.4216 6.51709 19.9658C6.51709 18.5794 7.14101 17.3315 8.11154 16.4996C8.52749 16.153 9.08208 15.8064 9.56735 15.4598C10.6072 14.7665 11.7857 14.004 12.8256 12.8948C14.0041 11.7163 14.7667 10.6071 15.3906 9.56722C15.7372 9.01263 16.0838 8.52736 16.4304 8.11142C17.193 7.14088 18.4408 6.51696 19.758 6.51696C21.1445 6.44764 22.531 7.07156 23.3628 8.04209C23.7095 8.45804 24.1254 8.94331 24.5414 9.4979C25.3039 10.4684 26.2051 11.5776 27.245 12.6175C28.2155 13.588 29.394 14.4892 30.3646 15.3211C30.9192 15.7371 31.4044 16.153 31.8204 16.4996C32.8602 17.4008 33.4148 18.718 33.3455 20.1738C33.2762 21.491 32.7216 22.6695 31.7511 23.5014C31.2658 23.848 30.7112 24.2639 30.0873 24.6105C29.0474 25.3038 27.7996 26.0664 26.8984 26.9676C25.9972 27.7995 25.2346 29.0473 24.5414 30.0872C24.1254 30.7111 23.7095 31.335 23.3628 31.8203C22.6696 32.8601 21.4218 33.484 19.966 33.484C20.0353 33.484 20.0353 33.484 19.966 33.484ZM19.8966 9.01263C19.2727 9.01263 18.7181 9.28993 18.4408 9.70587C18.1635 10.0525 17.8862 10.4684 17.5396 11.023C16.8464 12.0629 15.9452 13.38 14.628 14.6972C13.3802 15.945 12.063 16.8463 10.9538 17.5395C10.3992 17.8861 9.98329 18.1634 9.63667 18.51C9.22073 18.8567 8.94343 19.4112 8.94343 20.0352C8.94343 20.6591 9.22073 21.2137 9.63667 21.5603C9.98329 21.8376 10.3992 22.1149 10.9538 22.4615C11.9937 23.1547 13.3109 24.056 14.628 25.3731C15.8065 26.5516 16.7077 27.8688 17.4703 28.9086C17.8169 29.4632 18.1635 29.9485 18.5102 30.2951C18.8568 30.7111 19.4807 30.9884 20.1046 30.9884C20.7285 30.9884 21.2831 30.7111 21.6297 30.2951C21.907 29.8792 22.323 29.3246 22.6696 28.77C23.4322 27.5915 24.2641 26.2743 25.3039 25.2345C26.4131 24.1253 27.7303 23.2934 28.9088 22.5308C29.4634 22.1842 30.018 21.8376 30.3646 21.5603C30.9192 21.1443 30.9885 20.5204 30.9885 20.1738C30.9885 19.4806 30.7112 18.8567 30.2953 18.4407C29.9486 18.0941 29.4634 17.7475 28.9088 17.3315C27.8689 16.4996 26.6904 15.5984 25.5812 14.4892C24.472 13.38 23.5015 12.2015 22.6696 11.1617C22.2537 10.6764 21.907 10.1911 21.5604 9.77519C21.1445 9.2206 20.5899 9.01263 19.8966 9.01263Z" fill="#00AEEF"/>
<path d="M22.6695 19.689C22.6695 21.2141 21.4217 22.3926 19.9658 22.3926C18.4407 22.3926 17.2622 21.1448 17.2622 19.689C17.2622 18.1639 18.51 16.9854 19.9658 16.9854C21.4217 16.9854 22.6695 18.2332 22.6695 19.689Z" fill="#00AEEF"/>
</g>
<defs>
<clipPath id="clip0_413_1177">
<rect width="123.466" height="40" fill="white"/>
</clipPath>
</defs>
</svg>
